<svg width="256" height="300" viewBox="0 0 256 300" fill="none" xmlns="http://www.w3.org/2000/svg">
<path d="M255.443 249.835C255.315 247.354 254.013 247.591 254.013 247.591C254.013 247.591 256.103 243.483 255.379 240.78C254.656 238.076 252.837 239.909 252.837 239.909C252.837 239.909 253.398 234.936 252.122 233.412C250.845 231.889 250.074 233.282 250.074 233.282C250.074 233.282 250.012 229.4 248.522 227.658C247.033 225.916 245.487 227.636 245.487 227.636C245.487 227.636 244.159 222.757 241.261 221.646C238.363 220.535 238.054 222.195 238.054 222.195C238.054 222.195 235.153 218.45 232.353 218.203C229.554 217.955 229.562 219.392 229.562 219.393C229.562 219.393 229.562 219.393 229.562 219.393C229.559 219.392 225.466 217.046 221.688 217.65C217.908 218.254 218.823 219.945 218.823 219.945C218.823 219.945 213.582 219.498 211.409 220.982C209.243 222.462 210.322 223.706 210.328 223.713C210.328 223.713 210.327 223.714 210.326 223.714C210.298 223.722 204.569 225.22 204.228 226.829C203.886 228.442 204.739 228.728 204.739 228.728C204.739 228.728 201.063 230.242 199.745 232.707C198.428 235.171 201.37 234.598 201.37 234.598C201.37 234.598 198.833 236.685 198.375 239.051C197.917 241.417 199.897 240.046 199.897 240.046C199.897 240.046 197.797 242.494 197.871 245.405C197.946 248.316 199.821 246.425 199.821 246.425C199.821 246.425 199.019 248.76 199.527 251.784C200.036 254.808 201.717 252.646 201.717 252.646L201.717 252.646C204.008 257.273 207.551 259.801 209.04 259.421C214.387 258.056 207.167 244.008 218.374 242.987C229.4 241.983 239.198 273.808 203.376 277.957C188.156 279.018 174.274 268.351 171.663 253L159.999 254.984C163.47 275.394 181.239 289.863 201.284 289.863C203.129 289.863 204.994 289.738 206.869 289.486C208.671 289.762 210.423 289.934 212.129 290.014L212.1 290.052C212.1 290.052 217.819 292.092 220.197 291.581C222.574 291.069 222.724 289.226 222.724 289.226C222.724 289.226 227.324 290.476 229.49 289.531C231.657 288.585 230.001 286.928 230.001 286.928C230.001 286.928 232.103 287.297 234.594 286.247C237.085 285.198 236.9 283.008 236.9 283.008C236.9 283.008 238.723 283.384 241.004 281.901C243.284 280.418 241.586 279.015 241.586 279.015C241.586 279.015 244.923 278.496 246.236 276.786C247.549 275.077 245.726 274.148 245.726 274.148C245.726 274.148 248.207 274.114 249.851 271.761C251.494 269.409 249.443 267.978 249.443 267.978C249.443 267.978 252.054 267.582 252.945 265.113C253.83 262.657 251.957 261.82 251.936 261.811C251.936 261.811 251.937 261.81 251.937 261.81C251.963 261.801 253.751 261.219 254.749 258.127C255.753 255.018 253.545 254.965 253.536 254.965C253.536 254.964 253.536 254.964 253.536 254.963C253.548 254.95 255.571 252.31 255.443 249.835Z" fill="#F26622"/>
<path d="M44.4611 1.12789C38.6893 2.75733 29.0184 39.1398 44.7939 59.7883L81.164 36.1718C71.0433 6.63568 50.233 -0.501556 44.4611 1.12789Z" fill="#F57F3F"/>
<path d="M67.3119 37.3915C67.3119 37.3915 65.915 30.9414 58.3195 21.5194C50.724 12.0973 50.9241 11.5134 47.8203 12.3792C44.7163 13.2451 38.9728 39.3454 51.3041 56.0055" fill="#F6EEDB"/>
<path d="M67.3119 37.3918C67.3119 37.3918 65.9151 30.9417 58.3195 21.5196C56.4967 19.2584 55.1259 17.5109 54.0476 16.1655C50.4316 19.756 44.9281 29.4783 55.1126 51.5771L67.3119 37.3918Z" fill="#ED5500"/>
<path d="M172.761 1.12789C178.533 2.75733 188.204 39.1398 172.429 59.7883L136.058 36.1718C146.179 6.63568 166.989 -0.501556 172.761 1.12789Z" fill="#F57F3F"/>
<path d="M149.91 37.3915C149.91 37.3915 151.307 30.9414 158.903 21.5194C166.498 12.0973 166.298 11.5134 169.402 12.3792C172.506 13.2451 178.249 39.3454 165.918 56.0055" fill="#F6EEDB"/>
<path d="M149.91 37.3918C149.91 37.3918 151.307 30.9417 158.903 21.5196C160.726 19.2584 162.096 17.5109 163.175 16.1655C166.791 19.756 172.294 29.4783 162.11 51.5771L149.91 37.3918Z" fill="#ED5500"/>
<path d="M186.48 93.4551C193.146 93.4551 187.404 85.1733 183.959 81.0456C191.543 80.8649 184.254 72.5557 181.098 69.812C188.539 69.6403 180.172 60.7479 177.81 58.7168C177.811 58.7168 182.163 59.1443 180.465 55.0628C178.767 50.9812 173.373 46.1032 173.373 46.1032C173.373 46.1032 177.797 48.0656 177.116 44.4211C176.434 40.7768 169.516 36.5949 169.516 36.5949C169.516 36.5949 173.333 35.6745 169.927 32.1759C166.532 28.6881 159.748 27.2717 159.706 27.263C159.706 27.2628 159.706 27.2624 159.705 27.2622C159.719 27.2547 163.887 25.0282 157.775 22.2633C151.663 19.4986 143.975 20.478 143.947 20.4816C143.947 20.4816 143.947 20.4814 143.947 20.4814C143.96 20.4732 147.125 18.4689 142.906 16.4323C138.679 14.3914 127.885 16.9135 127.885 16.9135L127.886 16.9145C122.151 16.0872 115.746 15.5898 108.628 15.5898C108.622 15.5898 108.617 15.59 108.611 15.59C108.605 15.59 108.599 15.5898 108.593 15.5898C101.476 15.5898 95.0707 16.0872 89.3358 16.9145L89.337 16.9135C89.337 16.9135 78.5434 14.3914 74.3158 16.4323C70.0969 18.4689 73.2619 20.4732 73.275 20.4814C73.2748 20.4814 73.2746 20.4816 73.2744 20.4816C73.2466 20.478 65.5584 19.4984 59.4469 22.2633C53.3347 25.0282 57.5026 27.2547 57.5169 27.2622C57.5165 27.2624 57.5161 27.2626 57.5155 27.263C57.4736 27.2717 50.6899 28.6881 47.2945 32.1759C43.8885 35.6745 47.706 36.5949 47.706 36.5949C47.706 36.5949 40.7876 40.7766 40.1062 44.4211C39.4248 48.0654 43.8487 46.1032 43.8487 46.1032C43.8487 46.1032 38.4551 50.9812 36.7568 55.0628C35.0586 59.1443 39.4107 58.7168 39.4113 58.7168C37.0496 60.7481 28.6824 69.6403 36.124 69.812C32.968 72.5557 25.6791 80.8649 33.2628 81.0456C29.8179 85.1733 24.0756 93.4551 30.7421 93.4551C27.8106 97.3374 23.0523 105.351 29.4966 105.033C28.5337 108.85 26.1165 116.726 32.4269 114.665C32.0932 119.058 30.7812 128.388 37.4791 123.636C37.4868 127.367 37.0494 136.259 43.1354 132.4C42.2669 137.426 41.9624 143.402 47.7267 140.252C47.2536 143.986 45.9416 149.233 50.242 148.571C47.9824 151.566 45.1458 157.834 48.8232 157.716C45.1458 161.333 42.2669 167.893 46.2523 167.314C44.0467 169.642 39.8193 176.347 44.5317 176.791C43.8352 182.027 41.3779 206.332 41.3779 214.528C41.3779 237.098 175.843 237.098 175.843 214.528C175.843 206.332 173.386 182.027 172.69 176.791C177.402 176.348 173.175 169.642 170.969 167.314C174.954 167.892 172.075 161.333 168.398 157.716C172.075 157.834 169.239 151.566 166.979 148.571C171.28 149.233 169.968 143.986 169.495 140.252C175.259 143.402 174.955 137.426 174.086 132.4C180.172 136.259 179.735 127.367 179.742 123.636C186.44 128.388 185.128 119.058 184.794 114.665C191.105 116.726 188.688 108.85 187.725 105.033C194.169 105.351 189.411 97.3374 186.48 93.4551Z" fill="#F79661"/>
<path d="M163.393 85.6652C163.393 85.6652 172 81.4301 160.546 74.9343C159.806 74.4715 159.084 74.0621 158.372 73.6766C158.715 73.539 160.767 72.6052 159.584 70.3694C158.295 67.9355 151.36 67.9474 151.36 67.9474C151.36 67.9474 155.429 66.7714 154.134 63.4909C152.839 60.2104 146.459 60.4718 146.459 60.4718C146.459 60.4718 150.62 56.8675 147.476 53.7768C144.332 50.6862 138.682 51.427 138.682 51.427C138.682 51.427 140.818 47.9348 137.489 45.9242C134.16 43.9135 127.342 45.2892 127.342 45.2892C127.342 45.2892 128.242 43.1728 126.948 42.0087C125.653 40.8446 119.088 43.2786 119.088 43.2786C119.088 43.2786 118.81 41.2679 116.221 40.8447C114.642 40.5865 112.159 42.6155 110.459 44.2401C109.424 45.023 108.735 45.8688 108.576 46.0971C108.416 45.8688 107.728 45.023 106.695 44.2401C104.996 42.6155 102.517 40.5863 100.939 40.8447C98.3533 41.2679 98.0761 43.2786 98.0761 43.2786C98.0761 43.2786 91.5185 40.8446 90.2253 42.0087C88.9322 43.1728 89.8318 45.2892 89.8318 45.2892C89.8318 45.2892 83.0212 43.9135 79.6962 45.9242C76.3712 47.9348 78.5047 51.427 78.5047 51.427C78.5047 51.427 72.8615 50.6862 69.7212 53.7768C66.5808 56.8673 70.7371 60.4718 70.7371 60.4718C70.7371 60.4718 64.3643 60.2104 63.0712 63.4909C61.7781 66.7714 65.842 67.9474 65.842 67.9474C65.842 67.9474 58.9151 67.9353 57.6281 70.3694C56.4462 72.6052 58.4961 73.539 58.8384 73.6766C58.1269 74.0619 57.4059 74.4715 56.6668 74.9343C45.2267 81.4301 53.8232 85.6652 53.8232 85.6652C53.8232 85.6652 48.0484 90.7429 49.103 94.0515C50.1575 97.36 54.89 98.7895 54.89 98.7895C54.89 98.7895 50.2552 101.886 51.6962 105.526C53.1373 109.165 58.4959 110.076 58.4959 110.076C58.4959 110.076 58.5223 110.1 58.5396 110.116C58.1509 110.378 55.8527 112.077 57.6279 114.604C59.5613 117.355 65.7078 116.635 65.7078 116.635C65.7078 116.635 63.0712 118.414 64.7336 120.847C66.396 123.281 73.318 121.825 73.318 121.825C73.318 121.825 71.1884 124.445 73.318 126.35C75.4476 128.255 81.9443 126.813 81.9443 126.813C81.9443 126.813 79.3839 130.583 82.9112 132.065C86.4385 133.546 92.5703 132.065 92.5703 132.065C92.5703 132.065 91.7438 135.769 96.1568 135.874C100.57 135.98 103.701 133.134 103.701 133.134C103.701 133.134 104.501 138.52 108.573 138.52H108.576H108.578C112.655 138.52 113.456 133.134 113.456 133.134C113.456 133.134 116.591 135.98 121.009 135.874C125.427 135.769 124.6 132.065 124.6 132.065C124.6 132.065 130.739 133.546 134.27 132.065C137.801 130.583 135.238 126.813 135.238 126.813C135.238 126.813 141.743 128.255 143.875 126.35C146.007 124.445 143.875 121.825 143.875 121.825C143.875 121.825 150.805 123.281 152.469 120.847C154.134 118.414 151.494 116.635 151.494 116.635C151.494 116.635 157.647 117.355 159.583 114.604C161.361 112.078 159.06 110.378 158.671 110.116C158.688 110.1 158.714 110.076 158.714 110.076C158.714 110.076 164.079 109.165 165.522 105.526C166.965 101.886 162.325 98.7895 162.325 98.7895C162.325 98.7895 167.063 97.3602 168.118 94.0515C169.175 90.7429 163.393 85.6652 163.393 85.6652Z" fill="#FFF8EB"/>
<path d="M137.862 105.84C145.085 105.84 150.94 100.394 150.94 93.6762C150.94 86.9585 145.085 81.5127 137.862 81.5127C130.639 81.5127 124.784 86.9585 124.784 93.6762C124.784 100.394 130.639 105.84 137.862 105.84Z" fill="#FBE4E0"/>
<path d="M79.3596 105.84C86.5823 105.84 92.4375 100.394 92.4375 93.6762C92.4375 86.9585 86.5823 81.5127 79.3596 81.5127C72.1369 81.5127 66.2817 86.9585 66.2817 93.6762C66.2817 100.394 72.1369 105.84 79.3596 105.84Z" fill="#FBE4E0"/>
<path d="M130.938 89.3831C135.797 89.3831 139.736 85.7195 139.736 81.2003C139.736 76.6811 135.797 73.0176 130.938 73.0176C126.079 73.0176 122.14 76.6811 122.14 81.2003C122.14 85.7195 126.079 89.3831 130.938 89.3831Z" fill="#231F20"/>
<path d="M134.245 79.5913C135.241 79.5913 136.049 78.8403 136.049 77.9138C136.049 76.9874 135.241 76.2363 134.245 76.2363C133.249 76.2363 132.441 76.9874 132.441 77.9138C132.441 78.8403 133.249 79.5913 134.245 79.5913Z" fill="white"/>
<path d="M86.2836 89.3831C91.1426 89.3831 95.0816 85.7195 95.0816 81.2003C95.0816 76.6811 91.1426 73.0176 86.2836 73.0176C81.4246 73.0176 77.4856 76.6811 77.4856 81.2003C77.4856 85.7195 81.4246 89.3831 86.2836 89.3831Z" fill="#231F20"/>
<path d="M89.5904 79.5913C90.5865 79.5913 91.394 78.8403 91.394 77.9138C91.394 76.9874 90.5865 76.2363 89.5904 76.2363C88.5944 76.2363 87.7869 76.9874 87.7869 77.9138C87.7869 78.8403 88.5944 79.5913 89.5904 79.5913Z" fill="white"/>
<path d="M108.611 121.711C119.789 121.711 128.85 113.378 128.85 103.099C128.85 92.8194 119.789 84.4863 108.611 84.4863C97.4327 84.4863 88.3711 92.8194 88.3711 103.099C88.3711 113.378 97.4327 121.711 108.611 121.711Z" fill="white"/>
<path d="M133.297 100.801C126.734 106.251 118.102 109.592 108.611 109.592C99.12 109.592 90.4885 106.252 83.925 100.801" stroke="#231F20" stroke-width="3" stroke-miterlimit="10" stroke-linecap="round"/>
<path d="M108.611 88.6582C100.41 88.6582 98.533 90.5906 98.533 91.419C98.533 92.2471 101.201 97.6764 102.88 98.2286C104.56 98.7807 107.821 98.6886 108.611 98.6886C109.402 98.6886 112.662 98.7807 114.342 98.2286C116.022 97.6764 118.689 92.2471 118.689 91.419C118.689 90.5908 116.812 88.6582 108.611 88.6582Z" fill="#231F20"/>
<path d="M108.611 98.7803V109.166" stroke="#231F20" stroke-width="3" stroke-miterlimit="10" stroke-linecap="round"/>
<path d="M76.9567 58.3097C77.4966 58.3429 78.0495 58.3647 78.5546 58.4368C78.8105 58.4698 79.0724 58.4946 79.3214 58.5367L80.0659 58.6655C80.3155 58.7054 80.5573 58.7582 80.7976 58.8136L81.5189 58.9764C81.9932 59.0976 82.4613 59.229 82.9275 59.3614C84.7781 59.9237 86.543 60.6528 88.2225 61.5323C91.5776 63.2902 94.5683 65.714 96.9143 68.6139C97.7793 69.6831 97.6138 71.251 96.5446 72.116C95.5993 72.8808 94.2641 72.8399 93.3697 72.0813L93.3022 72.0235C92.157 71.0536 90.9239 70.2122 89.6234 69.5062C88.3227 68.8014 86.9576 68.2258 85.5523 67.7979C84.1488 67.3693 82.7105 67.0727 81.2895 66.9188C80.9345 66.889 80.5809 66.858 80.2309 66.835L79.7093 66.8185C79.5356 66.811 79.3631 66.8054 79.1949 66.813L78.6892 66.8217C78.5214 66.8243 78.364 66.8445 78.2022 66.8537C77.8714 66.8666 77.5867 66.9243 77.2893 66.9581L77.1809 66.9704C74.7948 67.2412 72.6408 65.5264 72.3702 63.1401C72.0994 60.754 73.8142 58.6 76.2005 58.3294C76.4477 58.3012 76.7165 58.2966 76.9567 58.3097Z" fill="#F1D8BE"/>
<path d="M139.933 66.9579C139.635 66.9241 139.351 66.8664 139.02 66.8535C138.858 66.8441 138.701 66.8241 138.533 66.8215L138.027 66.8128C137.859 66.8054 137.686 66.811 137.513 66.8183L136.991 66.8348C136.641 66.8578 136.288 66.8888 135.933 66.9186C134.512 67.0725 133.073 67.3691 131.67 67.7977C130.264 68.2256 128.899 68.8012 127.599 69.506C126.298 70.212 125.065 71.0534 123.92 72.0233L123.853 72.0801C122.803 72.9688 121.232 72.8385 120.343 71.789C119.557 70.8612 119.569 69.5251 120.308 68.6137C122.654 65.7138 125.644 63.2902 129 61.5321C130.679 60.6528 132.444 59.9235 134.295 59.3612C134.761 59.2288 135.229 59.0976 135.703 58.9763L136.424 58.8135C136.665 58.7583 136.907 58.7055 137.156 58.6653L137.901 58.5365C138.15 58.4942 138.412 58.4696 138.667 58.4366C139.173 58.3648 139.726 58.3427 140.265 58.3096C142.662 58.1626 144.725 59.9867 144.872 62.3837C145.018 64.7807 143.194 66.8429 140.797 66.9899C140.549 67.0051 140.304 66.9992 140.065 66.9736L139.933 66.9579Z" fill="#F1D8BE"/>
<path d="M173.478 213.564H43.7437V299.454H173.478V213.564Z" fill="#F79661"/>
<path fill-rule="evenodd" clip-rule="evenodd" d="M73.4032 287.409H73.4034V238.54C46.4139 238.54 24.5345 260.419 24.5342 287.409H22.1793C2.94796 287.409 0.366699 299.454 0.366699 299.454H73.4032V287.409Z" fill="#F79661"/>
<path fill-rule="evenodd" clip-rule="evenodd" d="M143.819 287.409V238.54C170.809 238.54 192.688 260.419 192.688 287.409H195.043C214.274 287.409 216.855 299.454 216.855 299.454H143.819V287.409H143.819Z" fill="#F79661"/>
<path d="M144.88 299.454H72.342V207.548C72.342 187.517 88.5801 171.279 108.611 171.279C128.642 171.279 144.88 187.517 144.88 207.548V299.454Z" fill="white"/>
<path d="M72.3422 245.72H53.3704V299.455H72.3422V245.72Z" fill="#F26622"/>
<path d="M72.3422 224.883H53.3704V251.017H72.3422V224.883Z" fill="url(#paint0_linear)"/>
<path d="M60.0167 287.41C40.7854 287.41 38.2041 299.455 38.2041 299.455H72.342V287.41C67.9707 287.41 63.7529 287.41 60.0167 287.41Z" fill="#F26622"/>
<path d="M163.851 245.72H144.88V299.455H163.851V245.72Z" fill="#F26622"/>
<path d="M157.205 287.409C176.436 287.409 179.018 299.454 179.018 299.454H144.88V287.409C149.251 287.409 153.469 287.409 157.205 287.409Z" fill="#F26622"/>
<path d="M163.851 224.883H144.88V251.017H163.851V224.883Z" fill="url(#paint1_linear)"/>
<defs>
<linearGradient id="paint0_linear" x1="62.8562" y1="251.017" x2="62.8562" y2="224.883" gradientUnits="userSpaceOnUse">
<stop stop-color="#F26622"/>
<stop offset="1" stop-color="#F79661"/>
</linearGradient>
<linearGradient id="paint1_linear" x1="154.366" y1="251.017" x2="154.366" y2="224.883" gradientUnits="userSpaceOnUse">
<stop stop-color="#F26622"/>
<stop offset="1" stop-color="#F79661"/>
</linearGradient>
</defs>
</svg>
