<?xml version="1.0" encoding="UTF-8" standalone="no"?>
<svg width="100%" height="100%" viewBox="0 0 1000 300" version="1.1" xmlns="http://www.w3.org/2000/svg"
    xml:space="preserve" style="fill-rule:evenodd;clip-rule:evenodd;stroke-linejoin:round;stroke-miterlimit:2;">
    <g transform="matrix(1,0,0,1,33.0806,20.0662)">
        <g transform="matrix(1,0,0,1,-118.001,-170.066)">
            <path
                d="M326.167,374.325L195.638,374.325L176.904,420.7L125,420.7L230.037,175L294.842,175L399.879,420.7L344.9,420.7L326.167,374.325ZM309.888,333.783L260.75,212.471L211.917,333.783L309.888,333.783Z"
                style="fill:white;fill-rule:nonzero;" />
        </g>
        <g transform="matrix(1,0,0,1,-118.001,-170.066)">
            <path
                d="M606.335,420.7L547.06,420.7L499.76,362.962C493.619,355.592 489.319,353.442 478.261,353.442L464.131,353.442L464.131,420.704L416.223,420.704L416.223,175L464.136,175L464.136,315.971L477.956,315.971C489.319,315.971 493.619,312.592 500.069,303.687L540.915,248.712L594.66,248.712L535.081,326.721L531.394,331.329C532.623,332.558 534.156,334.092 535.385,335.629L606.335,420.7Z"
                style="fill:white;fill-rule:nonzero;" />
        </g>
        <g transform="matrix(1,0,0,1,-118.001,-170.066)">
            <path
                d="M1044.84,390.908L1044.84,420.7L984.644,420.7L982.802,401.966C968.981,416.708 948.098,425 922.297,425C879.914,425 854.114,402.579 854.114,368.796C854.114,335.625 878.685,313.204 928.747,313.204C945.027,313.204 962.223,315.046 976.044,318.116L976.044,283.716L865.172,283.716L865.172,248.708L1023.65,248.708L1023.65,390.908L1044.84,390.908ZM976.044,349.141L976.044,348.529C962.835,345.15 946.868,344.229 937.347,344.229C908.785,344.229 895.272,351.908 895.272,366.033C895.272,381.696 912.164,387.837 929.056,387.533C954.543,387.529 976.044,375.554 976.044,349.141Z"
                style="fill:white;fill-rule:nonzero;" />
        </g>
        <g transform="matrix(1,0,0,1,-118.001,-170.066)">
            <path
                d="M671.936,175L624.023,175L624.023,221.992L671.936,221.992L671.936,175ZM777.775,175L729.863,175L729.863,248.708L624.032,248.708L624.032,420.7L671.944,420.7L671.944,283.721L729.867,283.721L729.867,356.204C729.867,399.2 751.671,425 797.13,425C810.642,425 825.692,422.237 839.205,418.858L839.205,382.616C830.605,385.379 820.472,387.225 812.484,387.225C789.142,387.225 777.78,372.483 777.78,344.841L777.78,283.721L839.201,283.721L839.201,248.708L777.775,248.708L777.775,175Z"
                style="fill:white;" />
        </g>
    </g>
</svg>