<svg width="1200" height="600" viewBox="0 0 1200 600" fill="none" xmlns="http://www.w3.org/2000/svg">
<path d="M326.167 374.325H195.638L176.904 420.7H125L230.037 175H294.842L399.879 420.7H344.9L326.167 374.325ZM309.888 333.783L260.75 212.471L211.917 333.783H309.888Z" fill="#07360C"/>
<path d="M606.335 420.7H547.06L499.76 362.962C493.619 355.592 489.319 353.442 478.261 353.442H464.131V420.704H416.223V175H464.136V315.971H477.956C489.319 315.971 493.619 312.592 500.069 303.687L540.915 248.712H594.66L535.081 326.721L531.394 331.329C532.623 332.558 534.156 334.092 535.385 335.629L606.335 420.7Z" fill="#07360C"/>
<path d="M1044.84 390.908V420.7H984.644L982.802 401.966C968.981 416.708 948.098 425 922.297 425C879.914 425 854.114 402.579 854.114 368.796C854.114 335.625 878.685 313.204 928.747 313.204C945.027 313.204 962.223 315.046 976.044 318.116V283.716H865.172V248.708H1023.65V390.908H1044.84ZM976.044 349.141V348.529C962.835 345.15 946.868 344.229 937.347 344.229C908.785 344.229 895.272 351.908 895.272 366.033C895.272 381.696 912.164 387.837 929.056 387.533C954.543 387.529 976.044 375.554 976.044 349.141Z" fill="#07360C"/>
<path fill-rule="evenodd" clip-rule="evenodd" d="M671.936 175H624.023V221.992H671.936V175ZM777.775 175H729.863V248.708H714.225H671.94H647.986H624.032V420.7H671.944V283.721H729.867V356.204C729.867 399.2 751.671 425 797.13 425C810.642 425 825.692 422.237 839.205 418.858V382.616C830.605 385.379 820.472 387.225 812.484 387.225C789.142 387.225 777.78 372.483 777.78 344.841V283.721H839.201V248.708H791.321H777.776H777.775V175Z" fill="#07360C"/>
</svg>
